<svg xmlns="http://www.w3.org/2000/svg" viewBox="0 0 120 80" width="120" height="80">
  <defs>
    <radialGradient id="bush" cx="50%" cy="40%" r="60%">
      <stop offset="0%" stop-color="#2a1f1a"/>
      <stop offset="60%" stop-color="#150e0a"/>
      <stop offset="100%" stop-color="#070403"/>
    </radialGradient>
  </defs>
  <ellipse cx="60" cy="78" rx="55" ry="3" fill="#000" opacity="0.4"/>
  <path d="M10 78 Q4 50 22 38 Q22 18 44 22 Q52 6 70 14 Q90 8 96 30 Q116 32 112 56 Q118 76 92 78 Z"
        fill="url(#bush)"/>
  <path d="M30 70 Q26 50 38 44 Q40 30 56 36 Q60 24 74 32 Q88 28 90 48 Q104 50 100 66 Q98 76 82 76 Z"
        fill="#1d1310" opacity="0.7"/>
</svg>
